# AST/ASF file generated using VICON BodyLanguage
# -----------------------------------------------
:version 1.10
:name VICON
:units
  mass 1.0
  length 0.45
  angle deg
:documentation
   .ast/.asf automatically generated from VICON data using
   VICON BodyBuilder and BodyLanguage model FoxedUp or BRILLIANT.MOD
:root
   order TX TY TZ RX RY RZ
   axis XYZ
   position 0 0 0  
   orientation 0 0 0 
:bonedata
  begin
     id 1 
     name lhipjoint
     direction 0.661853 -0.702389 0.261917 
     length 2.64193 
     axis 0 0 0  XYZ
  end
  begin
     id 2 
     name lfemur
     direction 0.34202 -0.939693 0  
     length 7.01722  
     axis 0 0 20  XYZ
    dof rx ry rz
    limits (-160.0 20.0)
           (-70.0 70.0)
           (-60.0 70.0)
  end
  begin
     id 3 
     name ltibia
     direction 0.34202 -0.939693 0   
     length 8.25008   
     axis 0 0 20   XYZ
    dof rx
    limits (-10.0 170.0)
  end
  begin
     id 4 
     name lfoot
     direction 0.0709916 -0.195048 0.978221   
     length 2.31941   
     axis -90 7.62852e-016 20   XYZ
    dof rx rz
    limits (-45.0 90.0)
           (-70.0 20.0)
  end
  begin
     id 5 
     name ltoes
     direction 1.53586e-011 -4.22017e-011 1   
     length 1.16486   
     axis -90 7.62852e-016 20   XYZ
    dof rx
    limits (-90.0 20.0)
  end
  begin
     id 6 
     name rhipjoint
     direction -0.638185 -0.721362 0.268992   
     length 2.57244  
     axis 0 0 0  XYZ 
  end
  begin
     id 7 
     name rfemur
     direction -0.34202 -0.939693 0   
     length 7.07017   
     axis 0 0 -20   XYZ
    dof rx ry rz
    limits (-160.0 20.0)
           (-70.0 70.0)
           (-70.0 60.0)
  end
  begin
     id 8 
     name rtibia
     direction -0.34202 -0.939693 0   
     length 8.20386   
     axis 0 0 -20   XYZ
    dof rx
    limits (-10.0 170.0)
 end
 begin
     id 9 
     name rfoot
     direction -0.0822429 -0.225961 0.970658   
     length 2.32215  
     axis -90 -7.62852e-016 -20   XYZ
    dof rx rz
    limits (-45.0 90.0)
           (-20.0 70.0)
  end
  begin
     id 10 
     name rtoes
     direction -1.53597e-011 -4.21689e-011 1   
     length 1.16333   
     axis -90 -7.62852e-016 -20   XYZ
    dof rx
    limits (-90.0 20.0)
  end
  begin
     id 11 
     name lowerback
     direction -0.0131557 0.998589 -0.0514484   
     length 2.14993   
     axis 0 0 0   XYZ
    dof rx ry rz
    limits (-20.0 45.0)
           (-30.0 30.0)
           (-30.0 30.0)
  end
  begin
     id 12 
     name upperback
     direction -0.000776481 0.999993 0.00352685   
     length 2.15301   
     axis 0 0 0   XYZ
    dof rx ry rz
    limits (-20.0 45.0)
           (-30.0 30.0)
           (-30.0 30.0)
  end
  begin
     id 13 
     name thorax
     direction 0.00438186 0.999609 0.0276143   
     length 2.15424   
     axis 0 0 0   XYZ
    dof rx ry rz
    limits (-20.0 45.0)
           (-30.0 30.0)
           (-30.0 30.0)
  end
  begin
     id 14 
     name lowerneck
     direction -0.0488006 0.998094 0.0377807   
     length 1.90481   
     axis 0 0 0   XYZ
    dof rx ry rz
    limits (-20.0 45.0)
           (-30.0 30.0)
           (-30.0 30.0)
  end
  begin
     id 15 
     name upperneck
     direction 0.0443769 0.990702 -0.12861   
     length 1.91305   
     axis 0 0 0   XYZ
    dof rx ry rz
    limits (-20.0 45.0)
           (-30.0 30.0)
           (-30.0 30.0)
  end
  begin
     id 16
     name head
     direction 0.0165599 0.998647 -0.0492982  
     length 1.92369  
     axis 0 0 0   XYZ
    dof rx ry rz
    limits (-20.0 45.0)
           (-30.0 30.0)
           (-30.0 30.0)
  end
  begin
     id 17 
     name lclavicle
     direction 0.911936 0.410197 -0.0105506  
     length 3.52622  
     axis 0 0 0   XYZ
    dof ry rz
    limits (-20.0 10.0)
           (0.0 20.0)
  end
  begin
     id 18 
     name lhumerus
     direction 1 -4.48974e-011 -2.48591e-028   
     length 5.47651   
     axis 180 -30 -90   XYZ
    dof rx ry rz
    limits (-60.0 90.0)
           (-90.0 90.0)
           (-90.0 90.0)
  end
  begin
     id 19
     name lradius
     direction 1 -4.48938e-011 -4.40099e-027   
     length 3.09058   
     axis 180 -30 -90   XYZ
    dof rx
    limits (-10.0 170.0)
  end
  begin
     id 20
     name lwrist
     direction 1 -4.49042e-011 -2.99852e-027   
     length 1.54529   
     axis 1.95339e-015 90 90   XYZ
    dof ry
    limits (-180.0 0.0)
 end
  begin
     id 21 
     name lhand
     direction 1 -4.48815e-011 -5.98193e-027   
     length 0.771611   
     axis 3.82337e-015 90 90   XYZ
    dof rx rz
    limits (-90.0 90.0)
           (-45.0 45.0)
  end
  begin
     id 22 
     name lfingers
     direction 1 -4.49034e-011 -1.1993e-026   
     length 0.622093   
     axis 7.64668e-015 90 90   XYZ
    dof rx
    limits (0.0 90.0)
  end
  begin
     id 23
     name lthumb
     direction 0.707107 -6.34867e-011 0.707107   
     length 0.893204   
     axis -90 45 -1.62303e-014   XYZ
    dof rx rz
    limits (-45.0 45.0)
           (-45.0 45.0)
  end
  begin
     id 24 
     name rclavicle
     direction -0.93442 0.355634 -0.0195692   
     length 3.62463  
     axis 0 0 0   XYZ 
    dof ry rz
    limits (-10.0 20.0)
           (-20.0 0.0)
  end
  begin
     id 25 
     name rhumerus
     direction -1 -4.48957e-011 -1.19147e-027  
     length 5.14182   
     axis 180 30 90   XYZ
    dof rx ry rz
    limits (-90.0 60.0)
           (-90.0 90.0)
           (-90.0 90.0)
  end
  begin
     id 26 
     name rradius
     direction -1 -4.48952e-011 -3.81062e-027   
     length 3.35565   
     axis 180 30 90   XYZ
    dof rx
    limits (-10.0 170.0)
  end
  begin
     id 27 
     name rwrist
     direction -1 -4.48973e-011 -2.99621e-027   
     length 1.67782   
     axis 1.95339e-015 -90 -90   XYZ
    dof ry
    limits (-180.0 0.0)
  end
  begin
     id 28
     name rhand
     direction -1 -4.48895e-011 -5.98727e-027   
     length 0.801042   
     axis 3.82337e-015 -90 -90   XYZ
    dof rx rz
    limits (-90.0 90.0)
           (-45.0 45.0)
  end
  begin
     id 29
     name rfingers
     direction -1 -4.49065e-011 -1.19972e-026   
     length 0.645821   
     axis 7.64668e-015 -90 -90   XYZ
    dof rx
    limits (0.0 90.0)
  end
  begin
     id 30
     name rthumb
     direction -0.707107 -6.34957e-011 0.707107   
     length 0.927273   
     axis -90 -45 1.62303e-014   XYZ
    dof rx rz
    limits (-45.0 45.0)
           (-45.0 45.0)
  end
:hierarchy
  begin
    root lhipjoint rhipjoint lowerback
    lhipjoint lfemur
    lfemur ltibia
    ltibia lfoot
    lfoot ltoes
    rhipjoint rfemur
    rfemur rtibia
    rtibia rfoot
    rfoot rtoes
    lowerback upperback
    upperback thorax
    thorax lowerneck lclavicle rclavicle
    lowerneck upperneck
    upperneck head
    lclavicle lhumerus
    lhumerus lradius
    lradius lwrist
    lwrist lhand lthumb
    lhand lfingers
    rclavicle rhumerus
    rhumerus rradius
    rradius rwrist
    rwrist rhand rthumb
    rhand rfingers
  end

#!OML:ASF E:\Style4\Style4.ASF
:FULLY-SPECIFIED
:DEGREES
351
root 0.191026 17.7868 -1.32399 -0.617707 -3.21664 2.6362
lowerback 5.96057 3.84021 -3.9858
upperback 3.30532 4.88676 -2.74166
thorax -0.0121822 2.41461 -0.885417
lowerneck 2.88695 -5.63664 -6.90794
upperneck 8.29802 -7.94337 5.56694
head 2.74108 -4.03632 2.89493
rclavicle 1.49089e-014 -3.49861e-014
rhumerus 49.6312 -23.4171 -43.0907
rradius 76.8226
rwrist -46.3131
rhand -28.9728 16.3773
rfingers 7.12502
rthumb -2.32547 -13.5897
lclavicle 1.49089e-014 -3.49861e-014
lhumerus -42.4482 -46.4557 97.496
lradius 110.872
lwrist 33.1204
lhand -11.8722 24.8439
lfingers 7.12502
lthumb 14.1802 54.34
rfemur -12.833 3.32797 15.0675
rtibia 32.1616
rfoot -17.5332 -11.7961
rtoes -13.6947
lfemur -9.73619 -0.179253 -22.2103
ltibia 28.6845
lfoot -19.0909 9.24194
ltoes -12.5678
352
root 0.191817 17.7864 -1.32443 -0.627528 -3.22831 2.66566
lowerback 5.97516 3.83898 -3.9828
upperback 3.3032 4.88421 -2.74869
thorax -0.0215401 2.41357 -0.895257
lowerneck 2.91598 -5.63528 -6.92135
upperneck 8.2649 -7.94332 5.58214
head 2.72612 -4.03678 2.90367
rclavicle -3.05134e-014 -7.15625e-015
rhumerus 49.66 -23.3954 -43.1204
rradius 76.7906
rwrist -46.2393
rhand -28.951 16.2662
rfingers 7.12502
rthumb -2.30442 -13.7011
lclavicle -3.05134e-014 -7.15625e-015
lhumerus -42.4964 -46.4245 97.4667
lradius 110.908
lwrist 33.0773
lhand -11.8227 24.8591
lfingers 7.12502
lthumb 14.2278 54.3518
rfemur -12.8388 3.31066 15.0334
rtibia 32.1861
rfoot -17.541 -11.7984
rtoes -13.9728
lfemur -9.71989 -0.171928 -22.2421
ltibia 28.6616
lfoot -19.0874 9.27323
ltoes -12.6203
353
root 0.193137 17.7859 -1.32415 -0.635375 -3.22545 2.69546
lowerback 5.98396 3.81605 -3.97761
upperback 3.29063 4.85283 -2.75938
thorax -0.0376433 2.39833 -0.908184
lowerneck 2.94486 -5.61688 -6.93155
upperneck 8.23786 -7.92224 5.6182
head 2.71269 -4.02633 2.91956
rclavicle 9.64106e-015 -2.70347e-014
rhumerus 49.7293 -23.3364 -43.2288
rradius 76.7608
rwrist -46.1774
rhand -28.9906 16.1561
rfingers 7.12502
rthumb -2.3426 -13.8108
lclavicle 9.64106e-015 -2.70347e-014
lhumerus -42.5361 -46.3443 97.4431
lradius 110.878
lwrist 33.06
lhand -11.8037 24.8788
lfingers 7.12502
lthumb 14.2462 54.3701
rfemur -12.8374 3.30261 14.9934
rtibia 32.2009
rfoot -17.5181 -11.8082
rtoes -14.1506
lfemur -9.70563 -0.162593 -22.2808
ltibia 28.6583
lfoot -19.0969 9.34294
ltoes -13.0232
354
root 0.191949 17.7867 -1.32411 -0.619746 -3.22013 2.69478
lowerback 5.96359 3.80967 -3.9681
upperback 3.26957 4.84526 -2.75635
thorax -0.0475595 2.39492 -0.90923
lowerneck 2.99737 -5.61049 -6.91743
upperneck 8.21609 -7.91586 5.61806
head 2.6945 -4.02348 2.91875
rclavicle -2.0773e-014 3.02153e-014
rhumerus 49.7044 -23.3157 -43.2121
rradius 76.7438
rwrist -46.1915
rhand -29.0532 16.186
rfingers 7.12502
rthumb -2.40312 -13.7802
lclavicle -2.0773e-014 3.02153e-014
lhumerus -42.5564 -46.385 97.4451
lradius 110.839
lwrist 33.0853
lhand -11.9187 24.866
lfingers 7.12502
lthumb 14.1353 54.3652
rfemur -12.8608 3.32039 15.0001
rtibia 32.2058
rfoot -17.486 -11.8431
rtoes -14.0551
lfemur -9.73335 -0.129105 -22.2827
ltibia 28.6686
lfoot -19.0436 9.45754
ltoes -13.7279
355
root 0.192365 17.7882 -1.32402 -0.610621 -3.2067 2.69499
lowerback 5.96044 3.80188 -3.93794
upperback 3.25757 4.83623 -2.7464
thorax -0.0566095 2.39092 -0.915301
lowerneck 3.06721 -5.59891 -6.96302
upperneck 8.15898 -7.90599 5.6629
head 2.66668 -4.02 2.94522
rclavicle 1.53064e-014 -2.62396e-014
rhumerus 49.6869 -23.3012 -43.1977
rradius 76.7685
rwrist -46.2407
rhand -29.0879 16.2827
rfingers 7.12502
rthumb -2.43665 -13.6831
lclavicle 1.53064e-014 -2.62396e-014
lhumerus -42.5559 -46.4109 97.4354
lradius 110.819
lwrist 33.1131
lhand -11.9351 24.8562
lfingers 7.12502
lthumb 14.1195 54.3564
rfemur -12.8543 3.30477 14.997
rtibia 32.1916
rfoot -17.5243 -11.8039
rtoes -13.9407
lfemur -9.7558 -0.092702 -22.2923
ltibia 28.6839
lfoot -18.9647 9.5266
ltoes -14.3294
356
root 0.193616 17.7883 -1.32361 -0.610692 -3.22193 2.72556
lowerback 5.95584 3.79815 -3.93918
upperback 3.24868 4.83116 -2.73628
thorax -0.0641705 2.38843 -0.903974
lowerneck 3.14571 -5.58543 -7.01962
upperneck 8.09971 -7.89067 5.65819
head 2.634 -4.01518 2.95712
rclavicle -4.03533e-014 6.36111e-015
rhumerus 49.695 -23.2592 -43.2018
rradius 76.7917
rwrist -46.2371
rhand -29.0785 16.2438
rfingers 7.12502
rthumb -2.42755 -13.7221
lclavicle -4.03533e-014 6.36111e-015
lhumerus -42.5625 -46.3784 97.4385
lradius 110.798
lwrist 33.1302
lhand -11.8784 24.8471
lfingers 7.12502
lthumb 14.1742 54.3436
rfemur -12.8559 3.31089 14.9557
rtibia 32.1832
rfoot -17.528 -11.7887
rtoes -14.0023
lfemur -9.75443 -0.0759404 -22.3323
ltibia 28.6854
lfoot -18.9701 9.49638
ltoes -14.3526
357
root 0.194374 17.7883 -1.32314 -0.608911 -3.22031 2.69621
lowerback 5.94357 3.7824 -3.89186
upperback 3.24664 4.81355 -2.7131
thorax -0.0575873 2.38 -0.904284
lowerneck 3.13026 -5.58066 -7.05045
upperneck 8.11793 -7.88328 5.64293
head 2.64324 -4.01254 2.9572
rclavicle 7.13637e-014 -7.95139e-015
rhumerus 49.6972 -23.2195 -43.1911
rradius 76.8457
rwrist -46.3239
rhand -29.0812 16.1619
rfingers 7.12502
rthumb -2.43017 -13.804
lclavicle 7.13637e-014 -7.95139e-015
lhumerus -42.5962 -46.3109 97.4297
lradius 110.781
lwrist 33.157
lhand -11.9329 25.0224
lfingers 7.12502
lthumb 14.1216 54.5225
rfemur -12.8487 3.32426 14.9871
rtibia 32.1681
rfoot -17.5155 -11.8083
rtoes -14.0103
lfemur -9.74968 -0.0897536 -22.2961
ltibia 28.6804
lfoot -19.0128 9.41118
ltoes -13.8987
